# Alias OBJ Model File
# Exported from SketchUp, (c) 2000-2012 Trimble Navigation Limited
# File units = inches

mtllib Cut Column.mtl

g Mesh1 Model

usemtl FrontColor
v 26.0359 0 -5.04531
vt 15.702 0
vn 0.762246 0 0.647287
v 28.6434 0 -10.5521
vt 21.7949 0
vn 0.983768 0 0.179444
v 28.6434 50.7825 -10.5521
vt 21.7949 50.7825
v 26.0359 50.7825 -5.04531
vt 15.702 50.7825
f 1/1/1 2/2/2 3/3/2 4/4/1 

v 5.97954 0 -8.7037
vt -5.97954 8.7037
vn 0 -1 -0
v 5.61658 0 -13.154
vt -5.61658 13.154
v 28.4312 0 -13.154
vt -28.4312 13.154
vt -28.6434 10.5521
vt -26.0359 5.04531
v 21.0244 0 -1.58
vt -21.0244 1.58
v 14.9517 0 -1.08472
vt -14.9517 1.08472
v 9.44485 0 -3.69218
vt -9.44485 3.69218
f 5/5/3 6/6/3 7/7/3 2/8/3 1/9/3 8/10/3 9/11/3 10/12/3 

v 5.97954 50.7825 -8.7037
vt -8.18883 50.7825
vn -0.94169 0 0.336481
v 5.61658 50.7825 -13.154
vt -12.6539 50.7825
vn -0.996691 0 0.0812881
vt -12.6539 0
vt -8.18883 0
f 11/13/4 12/14/5 6/15/5 5/16/4 

vt 28.6434 10.5521
vn 0 1 -0
v 28.4312 50.7825 -13.154
vt 28.4312 13.154
vt 5.61658 13.154
vt 5.97954 8.7037
v 9.44485 50.7825 -3.69218
vt 9.44485 3.69218
v 14.9517 50.7825 -1.08472
vt 14.9517 1.08472
v 21.0244 50.7825 -1.58
vt 21.0244 1.58
vt 26.0359 5.04531
f 3/17/6 13/18/6 12/19/6 11/20/6 14/21/6 15/22/6 16/23/6 4/24/6 

vt 8.18883 0
vt 10.7993 0
vn 0.996691 0 -0.0812881
vt 10.7993 50.7825
vt 8.18883 50.7825
f 2/25/2 7/26/7 13/27/7 3/28/2 

vt -3.7581 0
vt 2.33482 0
vn -0.647287 0 0.762246
vt 2.33482 50.7825
vt -3.7581 50.7825
f 5/29/4 10/30/8 14/31/8 11/32/4 

vt 6.95623 0
vt 13.0492 0
vn -0.179444 0 0.983768
vt 13.0492 50.7825
vt 6.95623 50.7825
f 10/33/8 9/34/9 15/35/9 14/36/8 

vt 14.9903 0
vt 21.0833 0
vn 0.336481 0 0.94169
vt 21.0833 50.7825
vt 14.9903 50.7825
f 9/37/9 8/38/10 16/39/10 15/40/9 

vt 18.1915 0
vt 24.2844 0
vt 24.2844 50.7825
vt 18.1915 50.7825
f 8/41/10 1/42/1 4/43/1 16/44/10 

